# xmcd
#
# Track frame offsets:
#	150
#	12492
#	22694
#	34063
#	47665
#	60896
#	75845
#	88620
#	102510
#	116179
#	128702
#	143775
#	159176
#	168216
#	182254
#	193525
#	202891
#	212035
#	224445
#	235202
#	248423
#	261633
#	276871
#	290725
#	309629
#
# Disc length: 4339 seconds
#
# Revision: 1
# Processed by: cddbd v1.5.2PL0 Copyright (c) Steve Scherf et al.
# Submitted via: audiograbber 1.83.01
#
DISCID=5310f119
DTITLE=Tom T Hall - 50 Greatest Hits [CD1)
DYEAR=2010
DGENRE=Country
TTITLE0=I Washed My Face In The Morning Dew
TTITLE1=Ain't Got the Time
TTITLE2=The World The Way I Want It
TTITLE3=Ballad Of Forty Dollars
TTITLE4=Cloudy Day
TTITLE5=Homecoming
TTITLE6=Strawberry Farms
TTITLE7=Shoshine Man
TTITLE8=A Week In A Country Jail
TTITLE9=I Miss A Lot Of Trains
TTITLE10=Day Drinking (w/Dave Dudley)
TTITLE11=Salute To A Switchblade
TTITLE12=Chattanooga Dog
TTITLE13=Ode To A Half A Pound Of Ground Round
TTITLE14=One Hundred Children
TTITLE15=Old Enough To Want To (Fool Enough To Try)
TTITLE16=I Can't Dance
TTITLE17=The Year That Clayton Delaney Died
TTITLE18=Tulsa Telephone Book
TTITLE19=It Sure Can Get Cold In Des Moines
TTITLE20=Second Handed Flowers
TTITLE21=Me And Jesus
TTITLE22=The Monkey That Became President
TTITLE23=Old Dogs, Children and Watermelon Wine
TTITLE24=More About John Henry
EXTD=
EXTT0=
EXTT1=
EXTT2=
EXTT3=
EXTT4=
EXTT5=
EXTT6=
EXTT7=
EXTT8=
EXTT9=
EXTT10=
EXTT11=
EXTT12=
EXTT13=
EXTT14=
EXTT15=
EXTT16=
EXTT17=
EXTT18=
EXTT19=
EXTT20=
EXTT21=
EXTT22=
EXTT23=
EXTT24=
PLAYORDER=
